<?xml version="1.0" encoding="UTF-8"?>
<!DOCTYPE svg PUBLIC "-//W3C//DTD SVG 1.1//EN" "http://www.w3.org/Graphics/SVG/1.1/DTD/svg11.dtd">
<!-- Creator: CorelDRAW -->
<svg xmlns="http://www.w3.org/2000/svg" xml:space="preserve" width="100%" height="100%" version="1.1" style="shape-rendering:geometricPrecision; text-rendering:geometricPrecision; image-rendering:optimizeQuality; fill-rule:evenodd; clip-rule:evenodd"
viewBox="0 0 111.268 115.036"
 xmlns:xlink="http://www.w3.org/1999/xlink"
 xmlns:xodm="http://www.corel.com/coreldraw/odm/2003">
 <defs>
  <style type="text/css">
   <![CDATA[
    .fil0 {fill:#00B6FE}
   ]]>
  </style>
 </defs>
 <g id="Plan_x0020_1">
  <metadata id="CorelCorpID_0Corel-Layer"/>
  <path class="fil0" d="M31.791 98.816l-27.479 15.861c-0.43,0.235 -0.912,0.359 -1.4,0.359 -1.608,0 -2.912,-1.304 -2.911,-2.911l0 -109.213c-0.001,-1.608 1.303,-2.912 2.911,-2.912 0.49,0 0.971,0.125 1.398,0.359l27.482 15.864 -0.001 82.593zm79.475 13.376l0 -54.792c0.002,-1.541 -1.303,-2.845 -2.911,-2.845 -0.489,0 -0.97,0.124 -1.399,0.359l-27.48 15.863c0,9.346 0,18.691 0,28.036l27.48 15.864c0.429,0.235 0.91,0.359 1.399,0.359 1.608,0 2.913,-1.304 2.911,-2.844zm-0.008 -109.3l0.01 28.007c0,2.661 -0.937,4.213 -2.892,5.317l-52.75 30.479 -11.914 -6.893 0.004 -36.701 11.917 6.886 51.323 -29.628c0.429,-0.234 0.91,-0.359 1.399,-0.359 1.608,0 2.903,1.285 2.903,2.892z"/>
 </g>
</svg>
