<?xml version="1.0" encoding="UTF-8"?>
<!DOCTYPE svg PUBLIC "-//W3C//DTD SVG 1.1//EN" "http://www.w3.org/Graphics/SVG/1.1/DTD/svg11.dtd">
<!-- Creator: CorelDRAW -->
<svg xmlns="http://www.w3.org/2000/svg" xml:space="preserve" width="100%" height="100%" version="1.1" style="shape-rendering:geometricPrecision; text-rendering:geometricPrecision; image-rendering:optimizeQuality; fill-rule:evenodd; clip-rule:evenodd"
viewBox="0 0 238.231 304.811"
 xmlns:xlink="http://www.w3.org/1999/xlink"
 xmlns:xodm="http://www.corel.com/coreldraw/odm/2003">
 <defs>
  <style type="text/css">
   <![CDATA[
    .fil6 {fill:#C97C00}
    .fil5 {fill:#E3AE00}
    .fil4 {fill:#F1CA2D}
    .fil3 {fill:#F5DA42}
    .fil1 {fill:#F7E78C}
    .fil2 {fill:#F7E999}
    .fil0 {fill:#FAF3CD}
    .fil7 {fill:#2B2A29;fill-rule:nonzero}
   ]]>
  </style>
 </defs>
 <g id="Plan_x0020_1">
  <metadata id="CorelCorpID_0Corel-Layer"/>
  <g id="_2810117356912">
   <polygon class="fil0" points="68.068,34.733 51.052,24.912 54.06,57.852 68.067,74.027 "/>
   <path class="fil1" d="M51.052 24.912l-7.176 -4.144 -34.647 -19.998c-0.915,-0.503 -1.945,-0.77 -2.995,-0.77 -0.619,0 -1.218,0.09 -1.783,0.259l49.602 57.584 -3.001 -32.931z"/>
   <polygon class="fil2" points="68.065,74.03 53.87,57.631 58.136,102.708 68.066,121.368 "/>
   <path class="fil3" d="M58.136 102.708l-4.266 -45.077 -49.419 -57.372c-0.526,0.157 -1.024,0.381 -1.481,0.663l55.166 101.786z"/>
   <path class="fil4" d="M68.066 211.571l-9.932 -108.887 -55.141 -101.775c-0.868,0.529 -1.595,1.264 -2.116,2.137l21.426 195.061 45.763 13.464z"/>
   <polygon class="fil3" points="58.144,102.724 68.068,211.514 68.069,155.335 68.066,121.368 "/>
   <path class="fil5" d="M-0 142.516l0.001 49.026 22.305 6.553 -21.464 -194.989c-0.535,0.919 -0.842,1.988 -0.842,3.129l0 136.281z"/>
   <polygon class="fil5" points="68.066,211.571 22.303,198.107 26.424,235.6 "/>
   <path class="fil6" d="M22.303 198.107l-22.302 -6.565 0 48.607c0.042,3.405 2.818,6.155 6.233,6.155 0.999,0 1.982,-0.243 2.868,-0.701l0.043 -0.023 17.279 -9.98 -4.121 -37.493z"/>
   <path class="fil0" d="M192.609 21.778l16.637 19.768 28.975 -11.823 -0.009 -23.53c0.001,-3.442 -2.772,-6.193 -6.213,-6.193 -1.047,0 -2.079,0.266 -2.998,0.77l-36.392 21.008z"/>
   <polygon class="fil1" points="119.114,64.202 119.113,64.202 93.6,49.462 93.6,49.474 103.237,84.798 209.246,41.546 192.611,21.776 119.116,64.203 "/>
   <path class="fil1" d="M238.221 29.722l-28.975 11.824 27.718 31.066c0.774,-1.584 1.189,-3.465 1.26,-5.743l0.001 -25.914 -0.004 -11.233z"/>
   <path class="fil4" d="M209.246 41.546l-105.991 43.262 9.831 35.95 122.102 -45.6c0.721,-0.757 1.313,-1.599 1.776,-2.546l-27.718 -31.066z"/>
   <path class="fil5" d="M235.195 75.151l-122.107 45.61 6.011 22.037 8.835 -5.1 104.109 -60.157c1.24,-0.7 2.29,-1.484 3.152,-2.39z"/>
   <polygon class="fil3" points="93.595,88.746 103.255,84.808 93.6,49.513 "/>
   <polygon class="fil5" points="103.237,84.798 93.595,88.747 93.59,128.039 113.07,120.752 "/>
   <polygon class="fil6" points="113.07,120.752 93.594,128.044 111.778,138.565 119.099,142.798 "/>
   <path class="fil0" d="M229.044 118.631l-0.043 0.024 -0.708 0.408 -13.888 8.02 4.361 22.709 19.46 -1.119 0 -24.928c-0.124,-3.196 -2.867,-5.86 -6.227,-5.86 -1.031,0 -2.046,0.257 -2.955,0.746z"/>
   <polygon class="fil1" points="189.081,141.699 214.405,127.083 218.766,149.792 170.164,152.62 "/>
   <polygon class="fil1" points="238.226,148.673 218.772,149.796 225.461,184.552 238.223,191.919 "/>
   <polygon class="fil3" points="170.164,152.62 218.766,149.787 225.456,184.552 170.164,152.622 "/>
   <path class="fil4" d="M170.164 152.622l55.292 31.93 11.441 59.401c-0.933,1.16 -2.285,1.993 -3.832,2.26l-51.125 -45.988 -11.776 -47.59 0 -0.013z"/>
   <path class="fil3" d="M238.231 191.913l-12.775 -7.361 11.437 59.405c0.784,-0.975 1.271,-2.179 1.331,-3.473l0.007 -48.571z"/>
   <path class="fil5" d="M233.054 246.214l-51.115 -45.986 5.237 21.16 4.612 2.663 37.213 21.482c0.919,0.504 1.951,0.771 2.998,0.771 0.359,0 0.712,-0.031 1.055,-0.09z"/>
   <polygon class="fil5" points="170.163,189.635 181.94,200.225 170.164,152.635 "/>
   <polygon class="fil6" points="181.939,200.228 170.163,189.63 170.164,211.567 187.176,221.388 "/>
  </g>
  <path class="fil7" d="M0.004 278.38l0 26.431 6.22 0 0 -16.323 0.218 0 6.353 16.153 3.974 0 6.347 -16.062 0.224 0 0 16.232 6.22 0 0 -26.431 -7.916 0 -6.711 16.365 -0.309 0 -6.71 -16.365 -7.91 0zm39.271 26.431l1.745 -5.548 9.121 0 1.744 5.548 6.862 0 -8.915 -26.431 -8.504 0 -8.915 26.431 6.862 0zm3.265 -10.399l2.931 -9.37 0.206 0 2.944 9.37 -6.081 0zm19.06 10.399l6.389 0 0 -9.049 3.277 0 4.827 9.049 6.972 0 -5.488 -10.066c2.901,-1.314 4.579,-3.913 4.579,-7.565 0,-5.433 -3.701,-8.8 -9.636,-8.8l-10.92 0 0 26.431zm6.389 -14.082l0 -7.201 3.15 0c2.865,0 4.397,1.205 4.397,3.652 0,2.453 -1.532,3.549 -4.397,3.549l-3.15 0zm17.668 14.082l6.389 0 0 -7.165 2.556 -3.222 6.578 10.387 7.643 0 -9.539 -14.633 9.37 -11.798 -7.523 0 -8.739 11.18 -0.346 0 0 -11.18 -6.389 0 0 26.431zm25.511 0l18.43 0 0 -5.191 -12.041 0 0 -5.432 11.096 0 0 -5.197 -11.096 0 0 -5.421 12.041 0 0 -5.19 -18.43 0 0 26.431zm21.568 -21.241l8.025 0 0 21.241 6.299 0 0 -21.241 8.013 0 0 -5.19 -22.337 0 0 5.19zm25.468 21.241l18.43 0 0 -5.191 -12.041 0 0 -5.432 11.096 0 0 -5.197 -11.096 0 0 -5.421 12.041 0 0 -5.19 -18.43 0 0 26.431zm28.145 0l1.745 -5.548 9.121 0 1.744 5.548 6.862 0 -8.915 -26.431 -8.504 0 -8.915 26.431 6.862 0zm3.265 -10.399l2.931 -9.37 0.206 0 2.944 9.37 -6.081 0zm19.06 -16.032l0 26.431 6.22 0 0 -16.323 0.218 0 6.353 16.153 3.974 0 6.347 -16.062 0.224 0 0 16.232 6.22 0 0 -26.431 -7.916 0 -6.711 16.365 -0.309 0 -6.71 -16.365 -7.91 0z"/>
 </g>
</svg>
