<?xml version="1.0" encoding="UTF-8"?>
<!DOCTYPE svg PUBLIC "-//W3C//DTD SVG 1.1//EN" "http://www.w3.org/Graphics/SVG/1.1/DTD/svg11.dtd">
<!-- Creator: CorelDRAW -->
<svg xmlns="http://www.w3.org/2000/svg" xml:space="preserve" width="100%" height="100%" version="1.1" style="shape-rendering:geometricPrecision; text-rendering:geometricPrecision; image-rendering:optimizeQuality; fill-rule:evenodd; clip-rule:evenodd"
viewBox="0 0 773.19 115.036"
 xmlns:xlink="http://www.w3.org/1999/xlink"
 xmlns:xodm="http://www.corel.com/coreldraw/odm/2003">
 <defs>
  <style type="text/css">
   <![CDATA[
    .fil2 {fill:#C366F2}
    .fil1 {fill:#32183E;fill-rule:nonzero}
    .fil0 {fill:#C366F2;fill-rule:nonzero}
   ]]>
  </style>
 </defs>
 <g id="Plan_x0020_1">
  <metadata id="CorelCorpID_0Corel-Layer"/>
  <path class="fil0" d="M536.75 37.086l-11.145 0 0 -14.784 -19.649 0 0 14.784 -8.147 0 0 14.464 8.147 0 0 30.022c-0.114,12.503 7.995,18.763 21.875,18.122 4.733,-0.245 8.146,-1.207 10.032,-1.772l-2.961 -14.181c-0.848,0.207 -2.828,0.603 -4.299,0.603 -3.187,0 -4.998,-1.282 -4.998,-4.941l0 -27.853 11.145 0 0 -14.464zm38.244 62.891c16.198,0 26.834,-7.845 29.097,-19.97l-18.047 -0.528c-1.527,4.092 -5.544,6.317 -10.692,6.317 -7.543,0 -12.201,-5.035 -12.201,-12.578l0 -0.528 41.129 0 0 -4.903c0,-20.329 -12.371,-31.493 -29.89,-31.493 -18.65,0 -30.606,12.767 -30.606,31.889 0,19.782 11.805,31.794 31.21,31.794zm-11.843 -38.696c0.264,-6.148 5.129,-10.806 11.635,-10.806 6.468,0 11.145,4.489 11.221,10.806l-22.856 0zm68.624 38.564c8.599,0 14.539,-3.319 17.915,-9.636l0.49 0 0 8.599 18.481 0 0 -41.94c0,-13.068 -11.617,-20.574 -27.325,-20.574 -16.595,0 -26.005,8.354 -27.57,19.594l18.122 0.641c0.849,-3.923 4.111,-6.336 9.278,-6.336 4.828,0 7.883,2.319 7.883,6.468l0 0.207c0,3.772 -4.093,4.564 -14.634,5.488 -12.484,1.056 -22.931,5.676 -22.931,19.329 0,12.22 8.467,18.16 20.291,18.16zm6.072 -12.842c-4.545,0 -7.769,-2.169 -7.769,-6.28 0,-3.979 3.149,-6.392 8.731,-7.222 3.658,-0.528 8.146,-1.339 10.353,-2.489l0 5.864c0,6.016 -5.054,10.127 -11.315,10.127zm42.77 11.805l19.65 0 0 -36.528c0,-6.11 3.583,-9.994 8.731,-9.994 5.092,0 8.467,3.564 8.467,9.278l0 37.244 18.896 0 0 -36.848c0,-5.903 3.243,-9.674 8.674,-9.674 4.979,0 8.505,3.319 8.505,9.466l0 37.056 19.65 0 0 -41.544c0,-13.068 -8.033,-20.97 -19.687,-20.97 -9.109,0 -16.312,4.771 -18.594,12.126l-0.641 0c-1.66,-7.392 -8.279,-12.126 -16.84,-12.126 -8.43,0 -14.86,4.62 -17.444,12.126l-0.679 0 0 -11.334 -18.688 0 0 61.722z"/>
  <path class="fil1" d="M146.778 99.166l19.65 0 0 -36.528c0,-6.11 3.583,-9.994 8.731,-9.994 5.092,0 8.467,3.564 8.467,9.278l0 37.244 18.896 0 0 -36.848c0,-5.903 3.243,-9.674 8.674,-9.674 4.979,0 8.505,3.319 8.505,9.466l0 37.056 19.65 0 0 -41.544c0,-13.068 -8.033,-20.97 -19.687,-20.97 -9.109,0 -16.312,4.771 -18.594,12.126l-0.641 0c-1.66,-7.392 -8.279,-12.126 -16.84,-12.126 -8.43,0 -14.86,4.62 -17.444,12.126l-0.679 0 0 -11.334 -18.688 0 0 61.722zm122.199 1.037c8.599,0 14.539,-3.319 17.915,-9.636l0.49 0 0 8.599 18.481 0 0 -41.94c0,-13.068 -11.617,-20.574 -27.325,-20.574 -16.595,0 -26.005,8.354 -27.57,19.594l18.122 0.641c0.849,-3.923 4.111,-6.336 9.278,-6.336 4.828,0 7.883,2.319 7.883,6.468l0 0.207c0,3.772 -4.093,4.564 -14.634,5.488 -12.484,1.056 -22.931,5.676 -22.931,19.329 0,12.22 8.467,18.16 20.291,18.16zm6.072 -12.842c-4.545,0 -7.769,-2.169 -7.769,-6.28 0,-3.979 3.149,-6.392 8.731,-7.222 3.658,-0.528 8.146,-1.339 10.353,-2.489l0 5.864c0,6.016 -5.054,10.127 -11.315,10.127zm42.77 11.805l19.65 0 0 -33.51c0,-7.355 5.224,-12.296 12.258,-12.296 2.338,0 5.827,0.396 7.712,1.038l0 -17.067c-1.64,-0.452 -3.696,-0.735 -5.506,-0.735 -6.751,0 -12.126,3.941 -14.389,12.106l-0.641 0 0 -11.258 -19.084 0 0 61.722zm47.654 0l19.65 0 0 -18.518 3.979 -4.828 14.709 23.346 22.705 0 -22.78 -34.83 21.894 -26.892 -22.253 0 -17.368 22.102 -0.886 0 0 -42.676 -19.65 0 0 82.296zm93.498 1.169c16.198,0 26.834,-7.845 29.097,-19.97l-18.047 -0.528c-1.527,4.092 -5.544,6.317 -10.692,6.317 -7.543,0 -12.201,-5.035 -12.201,-12.578l0 -0.528 41.129 0 0 -4.903c0,-20.329 -12.371,-31.493 -29.89,-31.493 -18.65,0 -30.606,12.767 -30.606,31.889 0,19.782 11.805,31.794 31.21,31.794zm-11.843 -38.696c0.264,-6.148 5.129,-10.806 11.635,-10.806 6.468,0 11.145,4.489 11.221,10.806l-22.856 0z"/>
  <path class="fil2" d="M31.791 98.816l-27.479 15.861c-0.43,0.235 -0.912,0.359 -1.4,0.359 -1.608,0 -2.912,-1.303 -2.911,-2.911l0 -109.213c-0.001,-1.608 1.303,-2.912 2.911,-2.912 0.49,0 0.971,0.125 1.398,0.359l27.482 15.864 -0.001 82.593zm79.475 13.376l0 -54.792c0.002,-1.541 -1.303,-2.845 -2.911,-2.845 -0.489,0 -0.97,0.124 -1.399,0.359l-27.48 15.864c0,9.345 0,18.69 0,28.035l27.48 15.864c0.429,0.235 0.91,0.359 1.399,0.359 1.608,0 2.913,-1.303 2.911,-2.844zm-0.008 -109.3l0.01 28.007c0,2.661 -0.937,4.214 -2.892,5.317l-52.75 30.48 -11.914 -6.894 0.004 -36.701 11.917 6.886 51.323 -29.628c0.429,-0.234 0.91,-0.359 1.399,-0.359 1.608,0 2.903,1.285 2.903,2.892z"/>
 </g>
</svg>
